<?xml version="1.0" encoding="UTF-8"?>
<svg width="64.535" height="64.535" version="1.1" viewBox="0 0 64.535 64.535"
  xmlns="http://www.w3.org/2000/svg">
  <path
    d="m32.268 2.5291c-16.415 0-29.738 13.323-29.738 29.738 0 14.904 10.983 27.26 25.291 29.408h0.0019l5.6953 2.8594h3.75l-5.5527-2.5352c0.18359 0.0033 0.36835 0.0063 0.55273 0.0063 16.415 0 29.738-13.323 29.738-29.739 5e-5 -16.415-13.323-29.738-29.738-29.738zm0 1.4766c15.617 0 28.262 12.645 28.262 28.262s-12.645 28.262-28.262 28.262c-0.15963 0-0.47852-0.0039-0.47852-0.0039l6.791-3.1959-4.4465 0.56415-5.1921 2.4423h-2e-3c-14.047-1.6449-24.934-13.577-24.934-28.068 0-15.617 12.645-28.262 28.262-28.262z"
    fill="#e30613" />
</svg>